<svg width="40" height="40" viewBox="0 0 40 40" fill="none" xmlns="http://www.w3.org/2000/svg">
<path d="M18.8 12.8C15.4934 12.8 12.8 15.4934 12.8 18.8C12.8 22.1066 15.4934 24.8 18.8 24.8C20.2379 24.8 21.5584 24.2894 22.5933 23.4418L26.1758 27.0242C26.2311 27.0818 26.2973 27.1278 26.3706 27.1594C26.4438 27.1911 26.5227 27.2078 26.6025 27.2087C26.6823 27.2095 26.7615 27.1943 26.8354 27.1642C26.9093 27.134 26.9765 27.0894 27.0329 27.0329C27.0894 26.9765 27.134 26.9093 27.1642 26.8354C27.1943 26.7615 27.2095 26.6823 27.2087 26.6025C27.2078 26.5227 27.1911 26.4438 27.1594 26.3706C27.1278 26.2973 27.0818 26.2311 27.0242 26.1758L23.4418 22.5933C24.2894 21.5584 24.8 20.2379 24.8 18.8C24.8 15.4934 22.1066 12.8 18.8 12.8ZM18.8 14C21.4581 14 23.6 16.1419 23.6 18.8C23.6 21.4581 21.4581 23.6 18.8 23.6C16.1419 23.6 14 21.4581 14 18.8C14 16.1419 16.1419 14 18.8 14Z" fill="black"/>
</svg>
